<svg xmlns="http://www.w3.org/2000/svg" viewBox="0 0 484.45 375.15"><defs><style>.cls-1{fill:#f8c460;}.cls-2{fill:#faaf42;}.cls-3{fill:#98deea;}.cls-4{fill:#82d0d8;}</style></defs><title>Asset 67</title><g id="Layer_2" data-name="Layer 2"><g id="Layer_1-2" data-name="Layer 1"><ellipse class="cls-1" cx="335.96" cy="154.95" rx="101.58" ry="106.02"/><path class="cls-2" d="M324.38,260.29c42.95,5,81.21-18.07,100.31-53.79-11.83-34.78-43.54-59.72-80.91-59.71h-.52c-22.37.14-44.17-9.79-56.33-29.39a112.88,112.88,0,0,0-28.38-31,108.87,108.87,0,0,0-23.32,82.34C241,216.57,278.47,255,324.38,260.29Z"/><path class="cls-3" d="M295.71,179.77c-7.47-55.48-53-98.2-108.22-98.19S86.76,124.33,79.31,179.81C35,183.35,0,222,0,269.18c0,49.54,38.5,89.69,86,89.69l203.15,0c47.47,0,85.94-40.18,85.93-89.72C375,221.9,340.07,183.3,295.71,179.77Z"/><path class="cls-4" d="M312.56,334.36l-203.16,0c-47.47,0-85.95-40.15-86-89.69A91.68,91.68,0,0,1,38,194.89,90.45,90.45,0,0,0,0,269.18c0,49.54,38.5,89.69,86,89.69l203.15,0c29.73,0,55.92-15.77,71.35-39.71A83,83,0,0,1,312.56,334.36Z"/><path class="cls-4" d="M375.05,269.11c0-47.21-35-85.81-79.34-89.34a118,118,0,0,0-4.35-19.49c-30.83,11.55-53.52,40.91-56.56,76.25l-.4,0c-34.52,0-62.5,29.22-62.49,65.26,0,24.57,13,46,32.28,57.07h84.93C336.59,358.82,375.06,318.65,375.05,269.11Z"/><path class="cls-3" d="M421.93,244.63l-.39,0c-4-45.73-40.74-81.57-85.57-81.56S254.36,199,250.42,244.69l-.39,0c-34.52,0-62.5,29.22-62.5,65.25s28,65.23,62.52,65.23l171.9,0c34.53,0,62.51-29.22,62.5-65.25S456.45,244.63,421.93,244.63Z"/><path class="cls-4" d="M445.39,350.65l-171.9,0c-34.52,0-62.51-29.2-62.52-65.23a67.08,67.08,0,0,1,8.19-32.22,65.71,65.71,0,0,0-31.63,56.69c0,36,28,65.23,62.52,65.23l171.9,0c23.29,0,43.56-13.32,54.31-33A60.24,60.24,0,0,1,445.39,350.65Z"/><path class="cls-1" d="M335.94,32.62a8,8,0,0,0,7.81-8.16V8.15a7.82,7.82,0,1,0-15.63,0V24.47A8,8,0,0,0,335.94,32.62Z"/><path class="cls-1" d="M461,163.08h15.63a8.16,8.16,0,0,0,0-16.31H461a8.16,8.16,0,0,0,0,16.31Z"/><path class="cls-1" d="M429.88,73.21a7.62,7.62,0,0,0,5.52-2.39l11.05-11.54a8.41,8.41,0,0,0,0-11.53,7.59,7.59,0,0,0-11.05,0l-11,11.54a8.41,8.41,0,0,0,0,11.53A7.65,7.65,0,0,0,429.88,73.21Z"/><path class="cls-1" d="M236.5,70.85A7.58,7.58,0,0,0,242,73.24a7.65,7.65,0,0,0,5.53-2.39,8.4,8.4,0,0,0,0-11.53l-11-11.53a7.58,7.58,0,0,0-11.05,0,8.4,8.4,0,0,0,0,11.53Z"/></g></g></svg>