<svg xmlns="http://www.w3.org/2000/svg" viewBox="0 0 484.45 505.62"><defs><style>.cls-1{fill:#98deea;}.cls-2{fill:#82d0d8;}.cls-3{fill:#d6e4e8;}</style></defs><title>Asset 65</title><g id="Layer_2" data-name="Layer 2"><g id="Layer_1-2" data-name="Layer 1"><path class="cls-1" d="M295.71,98.19C288.24,42.71,242.7,0,187.49,0S86.76,42.75,79.31,98.23C35,101.78,0,140.39,0,187.6c0,49.54,38.5,89.7,86,89.69l203.15,0c47.47,0,85.94-40.18,85.93-89.72C375,140.32,340.07,101.72,295.71,98.19Z"/><path class="cls-2" d="M312.56,252.78l-203.16,0c-47.47,0-85.95-40.15-86-89.69A91.7,91.7,0,0,1,38,113.31,90.45,90.45,0,0,0,0,187.6c0,49.54,38.5,89.7,86,89.69l203.15,0c29.73,0,55.92-15.76,71.35-39.71A83,83,0,0,1,312.56,252.78Z"/><path class="cls-2" d="M375.05,187.53c0-47.21-35-85.81-79.34-89.34a118.26,118.26,0,0,0-4.35-19.49C260.53,90.26,237.84,119.62,234.8,155l-.4,0c-34.52,0-62.5,29.22-62.49,65.25,0,24.58,13,46,32.28,57.08l84.93,0C336.59,277.24,375.06,237.07,375.05,187.53Z"/><path class="cls-1" d="M421.93,163.06l-.39,0c-4-45.73-40.74-81.56-85.57-81.56s-81.61,35.86-85.55,81.59l-.39,0c-34.52,0-62.5,29.22-62.5,65.25s28,65.24,62.52,65.23l171.9,0c34.53,0,62.51-29.22,62.5-65.25S456.45,163.05,421.93,163.06Z"/><path class="cls-3" d="M140.67,326.21c0,9-7,16.31-15.62,16.31s-15.63-7.3-15.63-16.31,7-16.31,15.62-16.31S140.67,317.2,140.67,326.21Z"/><ellipse class="cls-3" cx="78.18" cy="407.77" rx="15.63" ry="16.31"/><ellipse class="cls-3" cx="125.07" cy="489.31" rx="15.63" ry="16.31"/><path class="cls-3" d="M343.82,326.17c0,9,7,16.31,15.63,16.31s15.63-7.31,15.63-16.31-7-16.31-15.63-16.31S343.82,317.16,343.82,326.17Z"/><path class="cls-3" d="M390.72,407.71c0,9,7,16.31,15.63,16.31S422,416.72,422,407.71s-7-16.31-15.63-16.31S390.72,398.71,390.72,407.71Z"/><path class="cls-3" d="M343.85,489.27c0,9,7,16.31,15.63,16.31s15.63-7.31,15.63-16.31-7-16.31-15.63-16.31S343.85,480.26,343.85,489.27Z"/><path class="cls-2" d="M445.39,269.07l-171.9,0C239,269.11,211,239.9,211,203.87a67.08,67.08,0,0,1,8.19-32.22,65.71,65.71,0,0,0-31.63,56.69c0,36,28,65.24,62.52,65.23l171.9,0c23.29,0,43.56-13.33,54.31-33A60.13,60.13,0,0,1,445.39,269.07Z"/><path class="cls-3" d="M319.41,363a7.65,7.65,0,0,0-10.63-3.16L290,370.75l3.9-14.64a8.2,8.2,0,0,0-5.43-10,7.78,7.78,0,0,0-9.62,5.67l-8,30.14-20.7,12V370.44l22-22.07a8.39,8.39,0,0,0,.21-11.53,7.57,7.57,0,0,0-11-.22L250.06,347.8V326.19a7.82,7.82,0,1,0-15.63,0V347.8L223.3,336.63a7.59,7.59,0,0,0-11.05.22,8.41,8.41,0,0,0,.22,11.53l22,22.06v23.44l-20.71-12-8.05-30.14a7.78,7.78,0,0,0-9.62-5.67,8.21,8.21,0,0,0-5.42,10.05l3.9,14.63-18.83-10.91A7.64,7.64,0,0,0,165.1,363a8.34,8.34,0,0,0,3,11.09l18.05,10.46-14.32,3.86a8.19,8.19,0,0,0-5.62,9.93,7.71,7.71,0,0,0,9.53,5.86L206,396.07l20.15,11.67L206,419.43l-30.26-8.14a7.82,7.82,0,0,0-9.52,5.86,8.19,8.19,0,0,0,5.61,9.93l14.33,3.85-18,10.47a8.34,8.34,0,0,0-3,11.09,7.76,7.76,0,0,0,6.84,4.19,7.56,7.56,0,0,0,3.78-1l18.83-10.92-3.9,14.63a8.19,8.19,0,0,0,5.42,10,7.39,7.39,0,0,0,2.11.31,7.88,7.88,0,0,0,7.51-6l8-30.14,20.7-12v23.45l-22,22.06a8.41,8.41,0,0,0-.21,11.53,7.59,7.59,0,0,0,11.05.22l11.13-11.18v21.61a7.82,7.82,0,1,0,15.63,0V467.68l11.13,11.17a7.59,7.59,0,0,0,11-.22,8.4,8.4,0,0,0-.22-11.53l-22-22.06V421.6l20.7,12,8.05,30.13a7.87,7.87,0,0,0,7.52,6,7.67,7.67,0,0,0,2.1-.3,8.21,8.21,0,0,0,5.43-10L290,444.72l18.83,10.91a7.48,7.48,0,0,0,3.79,1,7.76,7.76,0,0,0,6.83-4.2,8.34,8.34,0,0,0-3-11.09l-18.05-10.46,14.33-3.85a8.2,8.2,0,0,0,5.61-9.94,7.81,7.81,0,0,0-9.52-5.86l-30.26,8.15-20.14-11.67,20.14-11.68,30.26,8.13a7,7,0,0,0,2,.26,7.89,7.89,0,0,0,7.56-6.12,8.2,8.2,0,0,0-5.62-9.93l-14.32-3.85,18-10.47A8.35,8.35,0,0,0,319.41,363Z"/></g></g></svg>