<svg xmlns="http://www.w3.org/2000/svg" viewBox="0 0 484.42 424.06"><defs><style>.cls-1{fill:#f8c460;}.cls-2{fill:#faaf42;}.cls-3{fill:#98deea;}.cls-4{fill:#82d0d8;}</style></defs><title>Asset 63</title><g id="Layer_2" data-name="Layer 2"><g id="Layer_1-2" data-name="Layer 1"><ellipse class="cls-1" cx="242.2" cy="212.02" rx="148.46" ry="154.95"/><path class="cls-2" d="M390.66,212c0-48.7-21.59-92.1-55.26-120.49-31,6.82-55.16,32.77-60.69,65.48-23.23,6.6-40.33,28.71-40.33,55,0,31.53,24.5,57.08,54.71,57.07h91A160.36,160.36,0,0,0,390.66,212Z"/><path class="cls-2" d="M94.26,222.72c5.24,79.89,68.37,143.1,146,144.14A58.48,58.48,0,0,0,250,334.34c0-26.33-17.11-48.44-40.34-55-6.48-38.23-38.4-67.29-76.88-67.28A75,75,0,0,0,94.26,222.72Z"/><path class="cls-3" d="M194.06,287.48c-6.47-38.23-38.39-67.29-76.88-67.28s-70.39,29.07-76.85,67.3C17.1,294.1,0,316.21,0,342.54c0,31.53,24.5,57.08,54.71,57.08l125,0c30.21,0,54.69-25.56,54.69-57.09C234.4,316.17,217.29,294.06,194.06,287.48Z"/><path class="cls-4" d="M203.16,375.13l-125,0c-30.21,0-54.7-25.55-54.7-57.08a58.43,58.43,0,0,1,6.1-26A57.18,57.18,0,0,0,0,342.54c0,31.53,24.5,57.08,54.71,57.08l125,0c21.15,0,39.45-12.55,48.55-30.88A52.58,52.58,0,0,1,203.16,375.13Z"/><path class="cls-3" d="M444.07,165.11c-6.47-38.23-38.39-67.29-76.87-67.28s-70.4,29.07-76.86,67.3c-23.23,6.6-40.33,28.71-40.33,55,0,31.53,24.5,57.08,54.71,57.08l125,0c30.2,0,54.69-25.56,54.68-57.09C484.42,193.8,467.31,171.69,444.07,165.11Z"/><path class="cls-4" d="M453.17,252.76l-125,0c-30.21,0-54.7-25.55-54.71-57.08a58.56,58.56,0,0,1,6.1-26A57.18,57.18,0,0,0,250,220.17c0,31.53,24.5,57.08,54.71,57.08l125,0c21.14,0,39.45-12.55,48.55-30.88A52.65,52.65,0,0,1,453.17,252.76Z"/><path class="cls-1" d="M242.17,32.62A8,8,0,0,0,250,24.46V8.15a7.82,7.82,0,1,0-15.62,0V24.47A8,8,0,0,0,242.17,32.62Z"/><path class="cls-1" d="M109.57,85.19a7.58,7.58,0,0,0,11.05,0,8.41,8.41,0,0,0,0-11.53L109.57,62.13a7.58,7.58,0,0,0-11,0,8.41,8.41,0,0,0,0,11.53Z"/><path class="cls-1" d="M46.86,220.22H62.49a8.16,8.16,0,0,0,0-16.31H46.86a8.16,8.16,0,0,0,0,16.31Z"/><path class="cls-1" d="M242.23,391.44a8,8,0,0,0-7.81,8.16v16.31a7.82,7.82,0,1,0,15.63,0V399.59A8,8,0,0,0,242.23,391.44Z"/><path class="cls-1" d="M374.82,338.87a7.59,7.59,0,0,0-11.05,0,8.4,8.4,0,0,0,0,11.53l11.05,11.53a7.58,7.58,0,0,0,11.05,0,8.4,8.4,0,0,0,0-11.53Z"/><path class="cls-1" d="M369.25,87.54a7.64,7.64,0,0,0,5.53-2.39l11-11.54a8.39,8.39,0,0,0,0-11.53,7.58,7.58,0,0,0-11.05,0l-11,11.54a8.4,8.4,0,0,0,0,11.53A7.63,7.63,0,0,0,369.25,87.54Z"/></g></g></svg>