<svg xmlns="http://www.w3.org/2000/svg" viewBox="0 0 484.45 473.01"><defs><style>.cls-1{fill:#7a838b;}.cls-2{fill:#5d6972;}.cls-3{fill:#d6e4e8;}.cls-4{fill:#62b5e8;}</style></defs><title>Asset 60</title><g id="Layer_2" data-name="Layer 2"><g id="Layer_1-2" data-name="Layer 1"><path class="cls-1" d="M295.71,98.19C288.24,42.71,242.7,0,187.49,0S86.76,42.75,79.31,98.23C35,101.78,0,140.39,0,187.6c0,49.54,38.5,89.7,86,89.69l203.15,0c47.47,0,85.94-40.18,85.93-89.72C375,140.32,340.07,101.72,295.71,98.19Z"/><path class="cls-2" d="M375.05,187.53c0-47.21-35-85.81-79.34-89.34a118.26,118.26,0,0,0-4.35-19.49C260.53,90.26,237.84,119.62,234.8,155l-.4,0c-34.52,0-62.5,29.22-62.49,65.25,0,24.58,13,46,32.28,57.08l84.93,0C336.59,277.24,375.06,237.07,375.05,187.53Z"/><path class="cls-2" d="M312.56,252.78l-203.16,0c-47.47,0-85.95-40.15-86-89.69A91.7,91.7,0,0,1,38,113.31,90.45,90.45,0,0,0,0,187.6c0,49.54,38.5,89.7,86,89.69l203.15,0c29.73,0,55.92-15.76,71.35-39.71A83,83,0,0,1,312.56,252.78Z"/><path class="cls-1" d="M421.93,163.06l-.39,0c-4-45.73-40.74-81.56-85.57-81.56s-81.61,35.86-85.55,81.59l-.39,0c-34.52,0-62.5,29.22-62.5,65.25s28,65.24,62.52,65.23l171.9,0c34.53,0,62.51-29.22,62.5-65.25S456.45,163.05,421.93,163.06Z"/><path class="cls-2" d="M445.39,269.07l-171.9,0C239,269.11,211,239.9,211,203.87a67.08,67.08,0,0,1,8.19-32.22,65.71,65.71,0,0,0-31.63,56.69c0,36,28,65.24,62.52,65.23l171.9,0c23.29,0,43.56-13.33,54.31-33A60.13,60.13,0,0,1,445.39,269.07Z"/><path class="cls-3" d="M328.19,289.48h0a12,12,0,0,0,11.72,12.23h27.35c8.63,0,15.63,7.3,15.63,16.31h0c0,9-7,16.31-15.62,16.31l-152.37,0a12,12,0,0,0-11.72,12.24h0a12,12,0,0,0,11.73,12.23l152.36,0c21.58,0,39.07-18.26,39.06-40.78h0c0-22.52-17.5-40.78-39.07-40.77H339.91A12,12,0,0,0,328.19,289.48Z"/><path class="cls-3" d="M375.1,460.72h0a12,12,0,0,1,11.72-12.23h27.35c8.63,0,15.62-7.3,15.62-16.31h0c0-9-7-16.31-15.63-16.31l-89.85,0a12,12,0,0,1-11.73-12.23h0a12,12,0,0,1,11.72-12.23l89.86,0c21.57,0,39.07,18.25,39.07,40.77h0c0,22.52-17.48,40.78-39.06,40.78H386.83A12,12,0,0,1,375.1,460.72Z"/><rect class="cls-3" x="296.97" y="448.5" width="46.88" height="24.47" rx="1.5"/><rect class="cls-3" x="234.45" y="391.43" width="46.88" height="24.47" rx="1.5"/><path class="cls-4" d="M45.78,375.16h0a14.58,14.58,0,0,1-13-21.11L50.72,318a14.46,14.46,0,0,1,12.94-8.07h0a14.59,14.59,0,0,1,13,21.11L58.73,367.09A14.47,14.47,0,0,1,45.78,375.16Z"/><path class="cls-4" d="M139.55,375.14h0a14.59,14.59,0,0,1-13-21.11L144.48,318a14.46,14.46,0,0,1,13-8.06h0A14.58,14.58,0,0,1,170.38,331l-17.89,36.06A14.45,14.45,0,0,1,139.55,375.14Z"/><path class="cls-4" d="M77.05,473h0a14.58,14.58,0,0,1-13-21.11L82,415.83a14.46,14.46,0,0,1,13-8.06h0a14.58,14.58,0,0,1,13,21.11L90,464.94A14.45,14.45,0,0,1,77.05,473Z"/><path class="cls-4" d="M170.82,473h0a14.58,14.58,0,0,1-12.95-21.11l17.88-36.06a14.46,14.46,0,0,1,12.95-8.07h0a14.58,14.58,0,0,1,13,21.11l-17.89,36.07A14.45,14.45,0,0,1,170.82,473Z"/></g></g></svg>