<svg xmlns="http://www.w3.org/2000/svg" viewBox="0 0 453.19 505.61"><defs><style>.cls-1{fill:#f8c460;}.cls-2{fill:#faaf42;}.cls-3{fill:#d6e4e8;}</style></defs><title>Asset 62</title><g id="Layer_2" data-name="Layer 2"><g id="Layer_1-2" data-name="Layer 1"><ellipse class="cls-1" cx="226.59" cy="236.5" rx="179.71" ry="187.57"/><path class="cls-2" d="M250.07,399.59c-99.26,0-179.73-83.94-179.75-187.53A191.76,191.76,0,0,1,111.76,92.23c-39.64,34.41-64.89,86.27-64.88,144.3,0,103.59,80.5,187.55,179.75,187.53,55.59,0,105.28-26.38,138.23-67.77C333.73,383.32,293.72,399.58,250.07,399.59Z"/><path class="cls-3" d="M281.31,322.11h0A12,12,0,0,0,293,334.34h27.35c8.63,0,15.62,7.3,15.63,16.31h0c0,9-7,16.31-15.63,16.31l-168,0a12,12,0,0,0-11.72,12.23h0a12,12,0,0,0,11.72,12.23l168,0c21.57,0,39.06-18.26,39.06-40.78h0c0-22.52-17.5-40.77-39.08-40.77H293A12,12,0,0,0,281.31,322.11Z"/><path class="cls-3" d="M328.22,493.36h0a12,12,0,0,1,11.72-12.23h27.34c8.63,0,15.63-7.3,15.63-16.31h0c0-9-7-16.31-15.63-16.31l-308.64.06a12,12,0,0,1-11.72-12.23h0a12,12,0,0,1,11.72-12.24l308.63,0c21.58,0,39.07,18.24,39.08,40.76h0c0,22.52-17.48,40.78-39.06,40.79H339.94A12,12,0,0,1,328.22,493.36Z"/><rect class="cls-3" x="46.91" y="367" width="62.51" height="24.47" rx="1.5"/><rect class="cls-3" x="218.83" y="481.14" width="62.51" height="24.47" rx="1.5"/><path class="cls-1" d="M226.56,32.62a8,8,0,0,0,7.81-8.16V8.15a7.82,7.82,0,1,0-15.63,0V24.47A8,8,0,0,0,226.56,32.62Z"/><path class="cls-1" d="M79.68,94.75a7.58,7.58,0,0,0,11,0,8.41,8.41,0,0,0,0-11.53l-11-11.53a7.58,7.58,0,0,0-11.05,0,8.41,8.41,0,0,0,0,11.53Z"/><path class="cls-1" d="M23.44,228.38H7.81a8.16,8.16,0,0,0,0,16.31H23.44a8.16,8.16,0,0,0,0-16.31Z"/><path class="cls-1" d="M362.46,378.24a8.42,8.42,0,0,0,0,11.54l11.05,11.53a7.59,7.59,0,0,0,11.05,0,8.41,8.41,0,0,0,0-11.53l-11.05-11.53A7.59,7.59,0,0,0,362.46,378.24Z"/><path class="cls-1" d="M445.37,228.3H429.75a8.16,8.16,0,0,0,0,16.31h15.63a8.16,8.16,0,0,0,0-16.31Z"/><path class="cls-1" d="M367.93,97.09a7.65,7.65,0,0,0,5.53-2.39l11-11.54a8.41,8.41,0,0,0,0-11.53,7.59,7.59,0,0,0-11.05,0L362.4,83.17a8.4,8.4,0,0,0,0,11.53A7.62,7.62,0,0,0,367.93,97.09Z"/></g></g></svg>