<svg xmlns="http://www.w3.org/2000/svg" viewBox="0 0 484.43 375.16"><defs><style>.cls-1{fill:#62b5e8;}.cls-2{fill:#44a7d8;}.cls-3{fill:#98deea;}.cls-4{fill:#82d0d8;}.cls-5{fill:#d6e4e8;}.cls-6{fill:#baced3;}</style></defs><title>Asset 61</title><g id="Layer_2" data-name="Layer 2"><g id="Layer_1-2" data-name="Layer 1"><path class="cls-1" d="M326.94,98.19C319.48,42.71,273.94,0,218.72,0S118,42.75,110.54,98.23c-44.36,3.55-79.32,42.16-79.31,89.37,0,49.54,38.5,89.7,86,89.69l203.15,0c47.47,0,85.94-40.18,85.94-89.72C406.28,140.32,371.31,101.72,326.94,98.19Z"/><path class="cls-2" d="M406.29,187.53c0-47.21-35-85.81-79.35-89.34a117.35,117.35,0,0,0-6.11-24.45c-41.47,3.65-74.52,38-78.24,81.22l-.4,0c-22.26,0-41.75,12.19-52.82,30.48C173.65,166.77,150.68,155,125,155,85.2,155,51.82,183.24,42,221.55c-1.36.29-2.68.67-4,1.06,13.08,32.14,43.6,54.69,79.17,54.68l203.15,0C367.82,277.24,406.29,237.07,406.29,187.53Z"/><path class="cls-3" d="M421.91,179.37l-.39,0c-3.95-45.72-40.74-81.56-85.57-81.55s-81.61,35.86-85.54,81.59l-.4,0c-34.52,0-62.5,29.22-62.5,65.26s28,65.23,62.53,65.22l171.89,0c34.53,0,62.51-29.22,62.5-65.25S456.43,179.37,421.91,179.37Z"/><path class="cls-4" d="M431.82,309c1.92-.32,3.82-.73,5.68-1.23.63-.17,1.26-.32,1.88-.5a60.8,60.8,0,0,0,13.83-6.2c.44-.26.86-.54,1.29-.81a63.92,63.92,0,0,0,5.49-3.94l.68-.53a64.17,64.17,0,0,0,10.87-11.57c.16-.21.31-.43.47-.65a67,67,0,0,0,4.23-6.7h0a60.13,60.13,0,0,1-30.87,8.56l-166.08,0c-5.92-23.94-24.51-42.58-47.89-47.58a90.5,90.5,0,0,0-18.08-35.25A67,67,0,0,1,219.14,188h0a63.24,63.24,0,0,0-11.09,8.54s0,0-.06-.06a66.35,66.35,0,0,0-20.48,48.21c0,36,28,65.23,62.53,65.22h30.71l141.18,0a59.87,59.87,0,0,0,7.74-.55C430.39,309.21,431.1,309.08,431.82,309Z"/><path class="cls-5" d="M215.78,246c-9.8-38.31-43.18-66.57-83-66.56S59.64,207.7,49.86,246C21.4,252.12,0,278.42,0,309.93c0,36,28,65.24,62.52,65.23l140.65,0c34.52,0,62.5-29.22,62.49-65.25C265.66,278.37,244.24,252.08,215.78,246Z"/><path class="cls-6" d="M226.6,350.66,86,350.69c-34.53,0-62.52-29.2-62.52-65.23a67.05,67.05,0,0,1,8.13-32.18A65.71,65.71,0,0,0,0,309.93c0,36,28,65.24,62.52,65.23l140.65,0c23.28,0,43.55-13.32,54.3-33A60.13,60.13,0,0,1,226.6,350.66Z"/></g></g></svg>